<svg version="1.2" baseProfile="tiny-ps" xmlns="http://www.w3.org/2000/svg" viewBox="0 0 755 818" width="755" height="818">
	<title>Color Fill 2</title>
	<style>
		tspan { white-space:pre }
		.shp0 { fill: #000000 } 
		.shp1 { fill: #ffffff } 
	</style>
	<path id="Color Fill 3" class="shp0" d="M1 256.24L1 561.76C1 598.73 21.2 632.9 54 651.39L325 804.14C357.8 822.63 398.2 822.63 431 804.14L702 651.39C734.8 632.9 755 598.73 755 561.76L755 256.24C755 219.27 734.8 185.1 702 166.61L431 13.86C398.2 -4.63 357.8 -4.63 325 13.86L54 166.61C21.2 185.1 1 219.27 1 256.24Z" />
	<path id="Color Fill 2" class="shp1" d="M395.72 471.93L560.64 471.93C564.75 471.93 568.08 475.18 568.08 479.19L568.08 499.9C568.08 509.95 562.59 519.24 553.67 524.27L392.41 615.17C383.49 620.19 372.51 620.19 363.59 615.17L202.33 524.27C193.41 519.24 187.92 509.95 187.92 499.9L187.92 318.1C187.92 308.05 193.41 298.76 202.33 293.73L363.59 202.83C372.51 197.8 383.49 197.8 392.41 202.83L553.34 293.55C562.46 298.69 573.7 298.69 582.82 293.55L680.13 238.69C688.07 234.22 688.07 223.04 680.13 218.57L392.41 56.38C383.49 51.36 372.51 51.36 363.59 56.38L72.43 220.51C63.51 225.53 58.02 234.82 58.02 244.88L58.02 573.12C58.02 583.18 63.51 592.47 72.43 597.49L363.59 761.62C372.51 766.64 383.49 766.64 392.41 761.62L683.57 597.49C692.49 592.47 697.98 583.18 697.98 573.12L697.98 471.93L697.98 363.38C697.98 353.82 690.05 346.07 680.26 346.07L395.72 346.07C385.94 346.07 378 353.82 378 363.38L378 454.62C378 464.18 385.94 471.93 395.72 471.93Z" />
</svg>