<svg width="20" height="20" viewBox="0 0 20 20" fill="none" xmlns="http://www.w3.org/2000/svg">
<path d="M6.52995 4.008C6.97539 3.2321 7.66809 2.62793 8.49733 2.29207C9.32657 1.9562 10.2445 1.90804 11.1043 2.15527C11.9641 2.40251 12.7163 2.93086 13.2405 3.65588C13.7646 4.38091 14.0306 5.26074 13.9959 6.15474C13.9612 7.04873 13.6278 7.90528 13.0489 8.58747C12.4701 9.26966 11.6793 9.73809 10.8028 9.9179C9.92642 10.0977 9.01502 9.9785 8.21433 9.57934C7.41364 9.18018 6.76988 8.52411 6.38595 7.716C6.12945 7.90364 5.81976 8.00453 5.50195 8.004H5.00195V8.259C5.00195 8.449 5.07395 8.622 5.19195 8.753C5.29279 8.63901 5.42596 8.55844 5.57373 8.52202C5.72149 8.4856 5.87685 8.49507 6.01911 8.54915C6.16136 8.60322 6.28377 8.69936 6.37003 8.82474C6.45629 8.95012 6.50231 9.09881 6.50195 9.251C6.50188 9.35552 6.47996 9.45886 6.4376 9.55441C6.39524 9.64996 6.33338 9.73561 6.25599 9.80585C6.17859 9.87609 6.08737 9.92937 5.98817 9.96229C5.88897 9.99521 5.78399 10.007 5.67995 9.997C5.22957 9.98119 4.80291 9.79116 4.48989 9.46694C4.17687 9.14273 4.00193 8.70966 4.00195 8.259V4.507C4.00195 4.37439 4.05463 4.24721 4.1484 4.15345C4.24217 4.05968 4.36934 4.007 4.50195 4.007H6.50195L6.52995 4.008ZM7.00195 6.119C7.03311 6.90372 7.37073 7.64494 7.94233 8.1835C8.51393 8.72205 9.27392 9.01499 10.0591 8.99941C10.8443 8.98383 11.5921 8.66097 12.1418 8.10017C12.6916 7.53937 12.9996 6.78534 12.9996 6C12.9996 5.21466 12.6916 4.46063 12.1418 3.89982C11.5921 3.33902 10.8443 3.01617 10.0591 3.00059C9.27392 2.98501 8.51393 3.27795 7.94233 3.8165C7.37073 4.35505 7.03311 5.09627 7.00195 5.881V6.119ZM6.00195 5.862V5.007H5.00195V7.004H5.50195C5.63456 7.004 5.76174 6.95132 5.85551 6.85755C5.94928 6.76378 6.00195 6.63661 6.00195 6.504V6.138C5.99884 6.04602 5.99884 5.95397 6.00195 5.862Z" fill="#274910"/>
<path d="M3 13C3 11.887 3.903 11 5.009 11H15C15.5304 11 16.0391 11.2107 16.4142 11.5858C16.7893 11.9609 17 12.4696 17 13C17 14.691 16.167 15.966 14.865 16.797C13.583 17.614 11.855 18 10 18C8.145 18 6.417 17.614 5.135 16.797C3.833 15.967 3 14.69 3 13ZM5.009 12C4.448 12 4 12.447 4 13C4 14.309 4.622 15.284 5.673 15.953C6.743 16.636 8.265 17 10 17C11.735 17 13.257 16.636 14.327 15.953C15.377 15.283 16 14.31 16 13C16 12.7348 15.8946 12.4804 15.7071 12.2929C15.5196 12.1054 15.2652 12 15 12H5.009Z" fill="#274910"/>
</svg>
